<svg width="1474" height="945" viewBox="0 0 1474 945" fill="none" xmlns="http://www.w3.org/2000/svg">
<g clip-path="url(#clip0_830:971)">
<rect width="1474" height="945" fill="white"/>
<rect x="8" y="7" width="1459" height="931" rx="74" fill="#007BFF"/>
<path d="M8 81C8 40.1309 41.1309 7 82 7H360.97L905 938H82C41.131 938 8 904.869 8 864V81Z" fill="#0274EE"/>
<g clip-path="url(#clip1_830:971)">
<path fill-rule="evenodd" clip-rule="evenodd" d="M363 382.797C363 399.05 349.843 411.433 334.364 411.433H189.636C174.157 412.207 161 399.05 161 382.797V280.636C161 265.157 174.157 252 189.636 252H333.59C349.843 252 362.226 265.157 362.226 280.636V382.797H363Z" fill="white"/>
<path d="M363 302.307V298.437H325.851V252H321.981V298.437H291.797C287.927 286.054 277.092 276.766 263.161 275.218V252H259.291V275.218C244.586 275.218 232.203 285.28 228.333 298.437H202.019V252H198.149V298.437H161V302.307H198.149V354.935H161V358.805H198.149V412.207H202.019V358.805H228.333C231.429 373.51 244.586 384.345 260.065 384.345V412.207H263.935V383.571C278.64 382.023 290.249 371.962 293.345 358.031H322.755V411.433H326.625V358.031H363.774V354.161H342.103V302.307H363ZM227.559 354.935H202.019V302.307H228.333C228.333 304.628 227.559 306.176 227.559 308.498C227.559 316.238 230.655 323.977 235.299 329.395C229.881 335.586 227.559 342.552 227.559 350.291C227.559 352.613 227.559 353.387 227.559 354.935ZM260.839 380.475C244.586 380.475 231.429 367.318 231.429 351.065C231.429 343.326 234.525 336.36 239.169 330.943L239.943 329.395L239.169 327.847C233.751 322.429 231.429 315.464 231.429 307.724C231.429 291.471 244.586 278.314 260.839 278.314C277.092 278.314 290.249 291.471 290.249 307.724C290.249 315.464 287.153 322.429 282.51 327.847L280.962 329.395L282.51 330.943C287.927 336.36 290.249 343.326 290.249 351.065C290.249 367.318 277.092 380.475 260.839 380.475ZM336.686 354.935H293.345C293.345 353.387 293.345 352.613 293.345 351.065C293.345 343.326 290.249 335.586 285.605 330.169C291.023 323.977 293.345 317.011 293.345 309.272C293.345 306.95 293.345 305.402 292.571 303.08H336.686V354.935Z" fill="#007BFF"/>
</g>
<path d="M189.664 532.61C183.814 532.61 180.394 534.41 177.514 537.02H175.534L176.974 518.84H206.584V512H170.584L167.794 545.21H175.714C178.414 541.25 182.554 539.27 188.224 539.27C196.684 539.27 201.994 545.39 201.994 554.03C201.994 563.39 196.324 569.15 187.954 569.15C180.304 569.15 175.174 565.19 174.184 557.36H166.354C167.074 567.98 174.454 576.17 188.314 576.17C201.094 576.17 209.914 567.35 209.914 553.67C209.914 541.97 202.264 532.61 189.664 532.61ZM244.899 533.96C237.339 533.96 232.299 537.47 230.139 540.08H228.159C228.609 526.31 234.369 517.76 244.449 517.76C250.569 517.76 253.989 520.46 255.519 525.77H263.349C261.909 517.13 255.159 510.74 244.449 510.74C227.979 510.74 220.509 526.04 220.509 545.21C220.509 567.89 230.229 576.17 243.639 576.17C257.049 576.17 265.059 566.45 265.059 554.48C265.059 542.51 256.419 533.96 244.899 533.96ZM243.549 569.15C235.899 569.15 229.689 563.93 229.689 554.75C229.689 545.75 235.809 540.89 243.369 540.89C251.019 540.89 257.139 545.48 257.139 554.84C257.139 564.2 251.199 569.15 243.549 569.15ZM314.359 520.82V512H274.219V518.84H306.169V520.82L278.809 575H287.089L314.359 520.82ZM360.426 540.8C363.666 539.36 368.346 534.59 368.346 527.57C368.346 517.58 359.706 510.74 347.466 510.74C335.226 510.74 326.586 517.58 326.586 527.57C326.586 534.77 331.176 539.36 334.506 540.8V542.78C330.276 544.22 324.696 549.53 324.696 557.81C324.696 568.25 333.606 576.17 347.466 576.17C361.326 576.17 370.236 568.25 370.236 557.81C370.236 549.44 364.566 544.22 360.426 542.78V540.8ZM347.466 517.58C354.666 517.58 360.606 521.18 360.606 527.93C360.606 534.68 354.666 538.37 347.466 538.37C340.266 538.37 334.326 534.68 334.326 527.93C334.326 521.18 340.266 517.58 347.466 517.58ZM347.466 569.15C338.196 569.15 332.526 564.38 332.526 557.09C332.526 549.62 338.196 545.21 347.466 545.21C356.736 545.21 362.406 549.62 362.406 557.09C362.406 564.38 356.736 569.15 347.466 569.15ZM470.223 553.22V512H459.153L431.343 551.24V560.24H462.483V575H470.223V560.24H478.863V553.22H470.223ZM439.623 553.22V551.24L460.593 520.91H462.573V553.22H439.623ZM512.37 532.61C506.52 532.61 503.1 534.41 500.22 537.02H498.24L499.68 518.84H529.29V512H493.29L490.5 545.21H498.42C501.12 541.25 505.26 539.27 510.93 539.27C519.39 539.27 524.7 545.39 524.7 554.03C524.7 563.39 519.03 569.15 510.66 569.15C503.01 569.15 497.88 565.19 496.89 557.36H489.06C489.78 567.98 497.16 576.17 511.02 576.17C523.8 576.17 532.62 567.35 532.62 553.67C532.62 541.97 524.97 532.61 512.37 532.61ZM567.606 533.96C560.046 533.96 555.006 537.47 552.846 540.08H550.866C551.316 526.31 557.076 517.76 567.156 517.76C573.276 517.76 576.696 520.46 578.226 525.77H586.056C584.616 517.13 577.866 510.74 567.156 510.74C550.686 510.74 543.216 526.04 543.216 545.21C543.216 567.89 552.936 576.17 566.346 576.17C579.756 576.17 587.766 566.45 587.766 554.48C587.766 542.51 579.126 533.96 567.606 533.96ZM566.256 569.15C558.606 569.15 552.396 563.93 552.396 554.75C552.396 545.75 558.516 540.89 566.076 540.89C573.726 540.89 579.846 545.48 579.846 554.84C579.846 564.2 573.906 569.15 566.256 569.15ZM616.545 552.95C624.105 552.95 629.145 549.44 631.305 546.83H633.285C632.835 560.6 627.075 569.15 616.995 569.15C610.875 569.15 607.455 566.45 605.925 561.14H598.095C599.535 569.78 606.285 576.17 616.995 576.17C633.465 576.17 640.935 560.87 640.935 541.7C640.935 519.02 631.215 510.74 617.805 510.74C604.395 510.74 596.385 520.46 596.385 532.43C596.385 544.4 605.025 552.95 616.545 552.95ZM617.895 517.76C625.545 517.76 631.755 522.98 631.755 532.16C631.755 541.16 625.635 546.02 618.075 546.02C610.425 546.02 604.305 541.43 604.305 532.07C604.305 522.71 610.245 517.76 617.895 517.76ZM743.212 520.82V512H703.072V518.84H735.022V520.82L707.662 575H715.942L743.212 520.82ZM789.279 540.8C792.519 539.36 797.199 534.59 797.199 527.57C797.199 517.58 788.559 510.74 776.319 510.74C764.079 510.74 755.439 517.58 755.439 527.57C755.439 534.77 760.029 539.36 763.359 540.8V542.78C759.129 544.22 753.549 549.53 753.549 557.81C753.549 568.25 762.459 576.17 776.319 576.17C790.179 576.17 799.089 568.25 799.089 557.81C799.089 549.44 793.419 544.22 789.279 542.78V540.8ZM776.319 517.58C783.519 517.58 789.459 521.18 789.459 527.93C789.459 534.68 783.519 538.37 776.319 538.37C769.119 538.37 763.179 534.68 763.179 527.93C763.179 521.18 769.119 517.58 776.319 517.58ZM776.319 569.15C767.049 569.15 761.379 564.38 761.379 557.09C761.379 549.62 767.049 545.21 776.319 545.21C785.589 545.21 791.259 549.62 791.259 557.09C791.259 564.38 785.589 569.15 776.319 569.15ZM828.819 552.95C836.379 552.95 841.419 549.44 843.579 546.83H845.559C845.109 560.6 839.349 569.15 829.269 569.15C823.149 569.15 819.729 566.45 818.199 561.14H810.369C811.809 569.78 818.559 576.17 829.269 576.17C845.739 576.17 853.209 560.87 853.209 541.7C853.209 519.02 843.489 510.74 830.079 510.74C816.669 510.74 808.659 520.46 808.659 532.43C808.659 544.4 817.299 552.95 828.819 552.95ZM830.169 517.76C837.819 517.76 844.029 522.98 844.029 532.16C844.029 541.16 837.909 546.02 830.349 546.02C822.699 546.02 816.579 541.43 816.579 532.07C816.579 522.71 822.519 517.76 830.169 517.76ZM887.118 510.74C873.798 510.74 863.988 520.82 863.988 543.5C863.988 566.18 873.798 576.17 887.118 576.17C900.438 576.17 910.338 566.18 910.338 543.5C910.338 520.82 900.438 510.74 887.118 510.74ZM887.118 569.15C876.678 569.15 871.908 559.07 871.908 543.5C871.908 527.84 876.678 517.76 887.118 517.76C897.648 517.76 902.418 527.84 902.418 543.5C902.418 559.07 897.648 569.15 887.118 569.15ZM975.196 512V518.84H1002.74V520.82L987.346 534.14V542.51C988.786 542.15 990.586 541.97 992.836 541.97C1002.11 541.97 1007.06 547.1 1007.06 555.38C1007.06 564.02 1001.39 569.15 992.746 569.15C985.186 569.15 979.336 564.56 978.616 557.36H970.696C971.416 568.07 979.966 576.17 992.746 576.17C1005.62 576.17 1014.98 568.43 1014.98 555.38C1014.98 543.23 1007.06 536.48 996.256 536.21V534.32L1012.01 520.82V512H975.196ZM1062.62 553.22V512H1051.55L1023.74 551.24V560.24H1054.88V575H1062.62V560.24H1071.26V553.22H1062.62ZM1032.02 553.22V551.24L1052.99 520.91H1054.97V553.22H1032.02ZM1088.92 529.37C1089.73 521.45 1094.68 517.76 1101.79 517.76C1109.44 517.76 1114.48 521.99 1114.48 529.91C1114.48 537.38 1108.99 542.51 1104.67 546.38C1101.34 549.44 1095.4 554.48 1090.36 558.53L1081.09 566.09V575H1124.38V567.98H1092.61V566L1108.45 552.68C1115.92 546.47 1122.4 538.46 1122.4 529.91C1122.4 517.31 1113.76 510.74 1101.97 510.74C1090.81 510.74 1081.72 516.77 1081 529.37H1088.92ZM1153.55 552.95C1161.11 552.95 1166.15 549.44 1168.31 546.83H1170.29C1169.84 560.6 1164.08 569.15 1154 569.15C1147.88 569.15 1144.46 566.45 1142.93 561.14H1135.1C1136.54 569.78 1143.29 576.17 1154 576.17C1170.47 576.17 1177.94 560.87 1177.94 541.7C1177.94 519.02 1168.22 510.74 1154.81 510.74C1141.4 510.74 1133.39 520.46 1133.39 532.43C1133.39 544.4 1142.03 552.95 1153.55 552.95ZM1154.9 517.76C1162.55 517.76 1168.76 522.98 1168.76 532.16C1168.76 541.16 1162.64 546.02 1155.08 546.02C1147.43 546.02 1141.31 541.43 1141.31 532.07C1141.31 522.71 1147.25 517.76 1154.9 517.76Z" fill="white"/>
<path d="M339.377 708.48C341.457 707.36 342.497 705.24 342.497 702.68C342.497 698.76 339.417 695.44 333.377 695.44H320.937V724H333.697C340.217 724 343.377 720.52 343.377 715.96C343.377 713.04 341.777 710.48 339.377 709.36V708.48ZM324.537 698.64H333.217C336.097 698.64 338.857 699.76 338.857 703C338.857 706.52 336.457 707.56 333.297 707.56H324.537V698.64ZM324.537 720.8V710.72H333.497C336.857 710.72 339.737 712 339.737 715.68C339.737 719.64 336.697 720.8 333.457 720.8H324.537ZM349.624 695.44V724H353.224V695.44H349.624ZM380.991 695.44V719.32H380.111L366.831 695.44H361.151V724H364.671V700.12H365.551L378.831 724H384.511V695.44H380.991ZM405.189 711.52C405.189 703.6 408.149 698 411.349 693.64H408.069C404.789 697.8 401.989 703.64 401.989 711.52C401.989 719.48 404.869 725.52 408.349 729.64H411.629C408.349 725.28 405.189 719.56 405.189 711.52ZM434.307 708.48C436.387 707.36 437.427 705.24 437.427 702.68C437.427 698.76 434.347 695.44 428.307 695.44H415.867V724H428.627C435.147 724 438.307 720.52 438.307 715.96C438.307 713.04 436.707 710.48 434.307 709.36V708.48ZM419.467 698.64H428.147C431.027 698.64 433.787 699.76 433.787 703C433.787 706.52 431.387 707.56 428.227 707.56H419.467V698.64ZM419.467 720.8V710.72H428.427C431.787 710.72 434.667 712 434.667 715.68C434.667 719.64 431.627 720.8 428.387 720.8H419.467ZM456.793 724H459.993V710.28C459.993 705.76 456.753 703.32 451.673 703.32C447.153 703.32 443.953 705.48 443.673 709.2H447.073C447.233 707.44 448.753 706.28 451.753 706.28C455.273 706.28 456.673 708.04 456.673 710.48V711.28H450.113C444.513 711.28 442.393 714.72 442.393 717.96C442.393 721.4 444.993 724.52 449.633 724.52C452.513 724.52 454.673 723.44 455.913 721.88H456.793V724ZM450.473 721.56C447.473 721.56 445.793 720.12 445.793 717.84C445.793 715.44 447.313 714 450.633 714H456.673V715.84C456.673 719.04 453.833 721.56 450.473 721.56ZM484.539 724V711.2C484.539 706.36 481.819 703.32 476.859 703.32C474.139 703.32 471.899 704.44 470.779 706H469.899V703.84H466.619V724H470.019V713.08C470.019 709.52 472.419 706.36 476.019 706.36C479.419 706.36 481.139 708.2 481.139 711.92V724H484.539ZM509.48 724L502.32 710.04L508.12 703.84H504.08L494.56 713.96V694.92H491.16V724H494.56V718.16L499.2 713.04H500.08L505.84 724H509.48ZM525.802 695.44V724H529.402V695.44H525.802ZM551.609 694.92V706H550.729C549.609 704.56 547.769 703.32 544.569 703.32C539.009 703.32 535.729 707.84 535.729 713.92C535.729 719.88 539.009 724.52 544.569 724.52C547.769 724.52 549.729 723.24 550.849 721.84H551.729V724H555.009V694.92H551.609ZM545.329 721.56C541.289 721.56 539.129 718.4 539.129 713.92C539.129 709.44 541.289 706.28 545.329 706.28C549.809 706.28 551.649 709.96 551.649 713.92C551.649 717.88 549.809 721.56 545.329 721.56ZM579.458 712.72C579.338 707.76 576.458 703.32 570.458 703.32C564.338 703.32 560.738 707.52 560.738 713.72C560.738 719.92 564.258 724.52 570.538 724.52C575.538 724.52 578.458 721.88 579.098 718.44H575.658C575.058 720.36 573.378 721.56 570.538 721.56C566.378 721.56 564.218 718.68 564.098 713.88H579.458V712.72ZM570.378 706.28C573.778 706.28 575.738 708.48 575.938 711.04H564.298C564.738 708.48 566.738 706.28 570.378 706.28ZM603.072 724V711.2C603.072 706.36 600.352 703.32 595.392 703.32C592.672 703.32 590.432 704.44 589.312 706H588.432V703.84H585.152V724H588.552V713.08C588.552 709.52 590.952 706.36 594.552 706.36C597.952 706.36 599.672 708.2 599.672 711.92V724H603.072ZM614.373 703.84V697.76H610.973V703.84H607.493V706.8H610.973V718.36C610.973 722.64 613.533 724 617.893 724H619.453V720.96H617.973C615.253 720.96 614.373 719.92 614.373 717.88V706.8H619.453V703.84H614.373ZM629.044 698.6V694.92H625.444V698.6H629.044ZM628.924 703.84H625.524V724H628.924V703.84ZM646.16 706.8V703.84H640.68V701.64C640.68 699.56 641.56 697.88 644.24 697.88H646.16V694.92H644.2C639.84 694.92 637.28 696.92 637.28 701.52V703.84H633.8V706.8H637.28V724H640.68V706.8H646.16ZM653.84 698.6V694.92H650.24V698.6H653.84ZM653.72 703.84H650.32V724H653.72V703.84ZM674.454 717.92C673.934 720.16 672.254 721.56 669.374 721.56C664.854 721.56 662.974 717.88 662.974 713.84C662.974 709.84 664.814 706.28 669.374 706.28C672.134 706.28 673.694 707.64 674.334 709.68H677.734C677.054 705.96 674.174 703.32 669.374 703.32C663.094 703.32 659.574 707.84 659.574 713.92C659.574 719.88 663.094 724.52 669.374 724.52C674.054 724.52 677.094 721.88 677.854 717.92H674.454ZM696.164 724H699.364V710.28C699.364 705.76 696.124 703.32 691.044 703.32C686.524 703.32 683.324 705.48 683.044 709.2H686.444C686.604 707.44 688.124 706.28 691.124 706.28C694.644 706.28 696.044 708.04 696.044 710.48V711.28H689.484C683.884 711.28 681.764 714.72 681.764 717.96C681.764 721.4 684.364 724.52 689.004 724.52C691.884 724.52 694.044 723.44 695.284 721.88H696.164V724ZM689.844 721.56C686.844 721.56 685.164 720.12 685.164 717.84C685.164 715.44 686.684 714 690.004 714H696.044V715.84C696.044 719.04 693.204 721.56 689.844 721.56ZM710.669 703.84V697.76H707.269V703.84H703.789V706.8H707.269V718.36C707.269 722.64 709.829 724 714.189 724H715.749V720.96H714.269C711.549 720.96 710.669 719.92 710.669 717.88V706.8H715.749V703.84H710.669ZM725.341 698.6V694.92H721.741V698.6H725.341ZM725.221 703.84H721.821V724H725.221V703.84ZM740.977 703.32C734.657 703.32 731.057 707.96 731.057 713.92C731.057 719.88 734.657 724.52 740.977 724.52C747.257 724.52 750.897 719.88 750.897 713.92C750.897 707.96 747.257 703.32 740.977 703.32ZM740.977 721.56C736.497 721.56 734.457 717.88 734.457 713.92C734.457 709.96 736.497 706.28 740.977 706.28C745.417 706.28 747.497 709.96 747.497 713.92C747.497 717.88 745.417 721.56 740.977 721.56ZM774.523 724V711.2C774.523 706.36 771.803 703.32 766.843 703.32C764.123 703.32 761.883 704.44 760.763 706H759.883V703.84H756.603V724H760.003V713.08C760.003 709.52 762.403 706.36 766.003 706.36C769.403 706.36 771.123 708.2 771.123 711.92V724H774.523ZM812.877 695.44V719.32H811.997L798.717 695.44H793.037V724H796.557V700.12H797.437L810.717 724H816.397V695.44H812.877ZM823.382 703.84V716.64C823.382 721.48 826.102 724.52 831.062 724.52C833.782 724.52 836.022 723.4 837.142 721.84H838.022V724H841.302V703.84H837.902V714.76C837.902 718.4 835.462 721.48 831.902 721.48C828.502 721.48 826.782 719.64 826.782 715.92V703.84H823.382ZM869.403 703.32C866.883 703.32 864.963 704.2 863.723 706H862.843C861.763 704.2 859.963 703.32 857.523 703.32C854.963 703.32 853.403 704.24 852.403 705.8H851.523V703.84H848.243V724H851.643V712.84C851.643 709.2 853.243 706.36 856.603 706.36C859.123 706.36 860.443 708.08 860.443 711.4V724H863.843V712.2C863.843 708.8 865.603 706.36 868.763 706.36C871.363 706.36 872.643 708 872.643 711.32V724H876.043V710.96C876.043 706.32 874.043 703.32 869.403 703.32ZM893.106 703.32C889.906 703.32 888.026 704.56 886.946 706H886.066V694.92H882.666V724H885.946V721.84H886.826C887.946 723.24 889.906 724.52 893.106 724.52C898.666 724.52 901.946 719.88 901.946 713.92C901.946 707.84 898.666 703.32 893.106 703.32ZM892.346 721.56C887.866 721.56 886.026 717.88 886.026 713.92C886.026 709.96 887.866 706.28 892.346 706.28C896.386 706.28 898.546 709.44 898.546 713.92C898.546 718.4 896.386 721.56 892.346 721.56ZM925.155 712.72C925.035 707.76 922.155 703.32 916.155 703.32C910.035 703.32 906.435 707.52 906.435 713.72C906.435 719.92 909.955 724.52 916.235 724.52C921.235 724.52 924.155 721.88 924.795 718.44H921.355C920.755 720.36 919.075 721.56 916.235 721.56C912.075 721.56 909.915 718.68 909.795 713.88H925.155V712.72ZM916.075 706.28C919.475 706.28 921.435 708.48 921.635 711.04H909.995C910.435 708.48 912.435 706.28 916.075 706.28ZM942.369 703.84H940.849C937.929 703.84 936.009 705 935.009 706.24H934.129V703.84H930.849V724H934.249V713.92C934.249 709.48 936.689 707.04 940.689 707.04H942.369V703.84ZM950.585 711.52C950.585 719.56 947.425 725.28 944.145 729.64H947.425C950.905 725.52 953.785 719.48 953.785 711.52C953.785 703.64 950.985 697.8 947.705 693.64H944.425C947.625 698 950.585 703.6 950.585 711.52Z" fill="white"/>
<path d="M1076.24 671.88C1075.32 675.2 1072.72 677.24 1068.72 677.24C1062.08 677.24 1059.16 671.8 1059.16 665.72C1059.16 659.68 1062.12 654.2 1068.76 654.2C1072.72 654.2 1074.84 655.88 1075.92 658.92H1079.72C1078.56 654 1074.56 650.92 1068.76 650.92C1060.28 650.92 1055.52 657.24 1055.52 665.72C1055.52 674.2 1060.2 680.52 1068.72 680.52C1075 680.52 1078.88 676.96 1080.04 671.88H1076.24ZM1103.63 680V667.2C1103.63 662.36 1100.91 659.32 1095.99 659.32C1093.27 659.32 1091.07 660.44 1089.99 662H1089.11V650.92H1085.71V680H1089.11V669.08C1089.11 665.52 1091.51 662.36 1095.11 662.36C1098.51 662.36 1100.23 664.28 1100.23 667.92V680H1103.63ZM1127.73 668.72C1127.61 663.76 1124.73 659.32 1118.73 659.32C1112.61 659.32 1109.01 663.52 1109.01 669.72C1109.01 675.92 1112.53 680.52 1118.81 680.52C1123.81 680.52 1126.73 677.88 1127.37 674.44H1123.93C1123.33 676.36 1121.65 677.56 1118.81 677.56C1114.65 677.56 1112.49 674.68 1112.37 669.88H1127.73V668.72ZM1118.65 662.28C1122.05 662.28 1124.01 664.48 1124.21 667.04H1112.57C1113.01 664.48 1115.01 662.28 1118.65 662.28ZM1147.07 673.92C1146.55 676.16 1144.87 677.56 1141.99 677.56C1137.47 677.56 1135.59 673.88 1135.59 669.84C1135.59 665.84 1137.43 662.28 1141.99 662.28C1144.75 662.28 1146.31 663.64 1146.95 665.68H1150.35C1149.67 661.96 1146.79 659.32 1141.99 659.32C1135.71 659.32 1132.19 663.84 1132.19 669.92C1132.19 675.88 1135.71 680.52 1141.99 680.52C1146.67 680.52 1149.71 677.88 1150.47 673.92H1147.07ZM1174.26 680L1167.1 666.04L1172.9 659.84H1168.86L1159.34 669.96V650.92H1155.94V680H1159.34V674.16L1163.98 669.04H1164.86L1170.62 680H1174.26ZM1184.05 667.44C1182.01 667.12 1181.01 666.52 1181.01 664.96C1181.01 663.24 1182.77 662.28 1185.37 662.28C1187.89 662.28 1189.81 663.16 1190.09 665.08H1193.49C1193.05 661.56 1190.29 659.32 1185.53 659.32C1180.09 659.32 1177.57 661.92 1177.57 665.28C1177.57 668.32 1179.53 669.84 1182.41 670.36L1186.93 671.12C1189.49 671.56 1190.61 672.52 1190.61 674.28C1190.61 676.48 1188.61 677.56 1185.57 677.56C1182.53 677.56 1180.53 676.44 1180.21 674.16H1176.77C1177.21 678 1180.01 680.52 1185.73 680.52C1191.17 680.52 1194.01 677.52 1194.01 674.2C1194.01 670.52 1191.77 668.72 1188.25 668.12L1185.97 667.76L1184.05 667.44ZM1199.07 659.84V672.64C1199.07 677.48 1201.79 680.52 1206.75 680.52C1209.47 680.52 1211.71 679.4 1212.83 677.84H1213.71V680H1216.99V659.84H1213.59V670.76C1213.59 674.4 1211.15 677.48 1207.59 677.48C1204.19 677.48 1202.47 675.64 1202.47 671.92V659.84H1199.07ZM1245.09 659.32C1242.57 659.32 1240.65 660.2 1239.41 662H1238.53C1237.45 660.2 1235.65 659.32 1233.21 659.32C1230.65 659.32 1229.09 660.24 1228.09 661.8H1227.21V659.84H1223.93V680H1227.33V668.84C1227.33 665.2 1228.93 662.36 1232.29 662.36C1234.81 662.36 1236.13 664.08 1236.13 667.4V680H1239.53V668.2C1239.53 664.8 1241.29 662.36 1244.45 662.36C1247.05 662.36 1248.33 664 1248.33 667.32V680H1251.73V666.96C1251.73 662.32 1249.73 659.32 1245.09 659.32Z" fill="white"/>
<path d="M853.263 812H857.023L847.103 783.44H841.023L831.143 812H834.823L837.783 803.24H850.303L853.263 812ZM843.223 787.12H844.823L849.183 799.96H838.863L843.223 787.12ZM875.124 805.92C874.604 808.16 872.924 809.56 870.044 809.56C865.524 809.56 863.644 805.88 863.644 801.84C863.644 797.84 865.484 794.28 870.044 794.28C872.804 794.28 874.364 795.64 875.004 797.68H878.404C877.724 793.96 874.844 791.32 870.044 791.32C863.764 791.32 860.244 795.84 860.244 801.92C860.244 807.88 863.764 812.52 870.044 812.52C874.724 812.52 877.764 809.88 878.524 805.92H875.124ZM897.633 805.92C897.113 808.16 895.433 809.56 892.553 809.56C888.033 809.56 886.153 805.88 886.153 801.84C886.153 797.84 887.993 794.28 892.553 794.28C895.313 794.28 896.873 795.64 897.513 797.68H900.913C900.233 793.96 897.353 791.32 892.553 791.32C886.273 791.32 882.753 795.84 882.753 801.92C882.753 807.88 886.273 812.52 892.553 812.52C897.233 812.52 900.273 809.88 901.033 805.92H897.633ZM915.183 791.32C908.863 791.32 905.263 795.96 905.263 801.92C905.263 807.88 908.863 812.52 915.183 812.52C921.463 812.52 925.103 807.88 925.103 801.92C925.103 795.96 921.463 791.32 915.183 791.32ZM915.183 809.56C910.703 809.56 908.663 805.88 908.663 801.92C908.663 797.96 910.703 794.28 915.183 794.28C919.623 794.28 921.703 797.96 921.703 801.92C921.703 805.88 919.623 809.56 915.183 809.56ZM930.489 791.84V804.64C930.489 809.48 933.209 812.52 938.169 812.52C940.889 812.52 943.129 811.4 944.249 809.84H945.129V812H948.409V791.84H945.009V802.76C945.009 806.4 942.569 809.48 939.009 809.48C935.609 809.48 933.889 807.64 933.889 803.92V791.84H930.489ZM973.27 812V799.2C973.27 794.36 970.55 791.32 965.59 791.32C962.87 791.32 960.63 792.44 959.51 794H958.63V791.84H955.35V812H958.75V801.08C958.75 797.52 961.15 794.36 964.75 794.36C968.15 794.36 969.87 796.2 969.87 799.92V812H973.27ZM984.57 791.84V785.76H981.17V791.84H977.69V794.8H981.17V806.36C981.17 810.64 983.73 812 988.09 812H989.65V808.96H988.17C985.45 808.96 984.57 807.92 984.57 805.88V794.8H989.65V791.84H984.57ZM1007.77 783.44V812H1011.37V783.44H1007.77ZM1033.58 782.92V794H1032.7C1031.58 792.56 1029.74 791.32 1026.54 791.32C1020.98 791.32 1017.7 795.84 1017.7 801.92C1017.7 807.88 1020.98 812.52 1026.54 812.52C1029.74 812.52 1031.7 811.24 1032.82 809.84H1033.7V812H1036.98V782.92H1033.58ZM1027.3 809.56C1023.26 809.56 1021.1 806.4 1021.1 801.92C1021.1 797.44 1023.26 794.28 1027.3 794.28C1031.78 794.28 1033.62 797.96 1033.62 801.92C1033.62 805.88 1031.78 809.56 1027.3 809.56ZM1061.43 800.72C1061.31 795.76 1058.43 791.32 1052.43 791.32C1046.31 791.32 1042.71 795.52 1042.71 801.72C1042.71 807.92 1046.23 812.52 1052.51 812.52C1057.51 812.52 1060.43 809.88 1061.07 806.44H1057.63C1057.03 808.36 1055.35 809.56 1052.51 809.56C1048.35 809.56 1046.19 806.68 1046.07 801.88H1061.43V800.72ZM1052.35 794.28C1055.75 794.28 1057.71 796.48 1057.91 799.04H1046.27C1046.71 796.48 1048.71 794.28 1052.35 794.28ZM1085.04 812V799.2C1085.04 794.36 1082.32 791.32 1077.36 791.32C1074.64 791.32 1072.4 792.44 1071.28 794H1070.4V791.84H1067.12V812H1070.52V801.08C1070.52 797.52 1072.92 794.36 1076.52 794.36C1079.92 794.36 1081.64 796.2 1081.64 799.92V812H1085.04ZM1096.35 791.84V785.76H1092.95V791.84H1089.47V794.8H1092.95V806.36C1092.95 810.64 1095.51 812 1099.87 812H1101.43V808.96H1099.95C1097.23 808.96 1096.35 807.92 1096.35 805.88V794.8H1101.43V791.84H1096.35ZM1111.02 786.6V782.92H1107.42V786.6H1111.02ZM1110.9 791.84H1107.5V812H1110.9V791.84ZM1128.13 794.8V791.84H1122.65V789.64C1122.65 787.56 1123.53 785.88 1126.21 785.88H1128.13V782.92H1126.17C1121.81 782.92 1119.25 784.92 1119.25 789.52V791.84H1115.77V794.8H1119.25V812H1122.65V794.8H1128.13ZM1135.81 786.6V782.92H1132.21V786.6H1135.81ZM1135.69 791.84H1132.29V812H1135.69V791.84ZM1160.27 800.72C1160.15 795.76 1157.27 791.32 1151.27 791.32C1145.15 791.32 1141.55 795.52 1141.55 801.72C1141.55 807.92 1145.07 812.52 1151.35 812.52C1156.35 812.52 1159.27 809.88 1159.91 806.44H1156.47C1155.87 808.36 1154.19 809.56 1151.35 809.56C1147.19 809.56 1145.03 806.68 1144.91 801.88H1160.27V800.72ZM1151.19 794.28C1154.59 794.28 1156.55 796.48 1156.75 799.04H1145.11C1145.55 796.48 1147.55 794.28 1151.19 794.28ZM1177.48 791.84H1175.96C1173.04 791.84 1171.12 793 1170.12 794.24H1169.24V791.84H1165.96V812H1169.36V801.92C1169.36 797.48 1171.8 795.04 1175.8 795.04H1177.48V791.84Z" fill="white"/>
<path d="M150.668 812H154.188V787.52H155.068L162.388 801.08H166.148L173.468 787.52H174.348V812H177.868V783.44H171.828L164.748 796.84H163.868L156.668 783.44H150.668V812ZM185.8 783.44V812H189.4V783.44H185.8ZM197.568 783.44V812H201.168V783.44H197.568ZM222.108 799.52C222.108 791.6 225.068 786 228.268 781.64H224.988C221.708 785.8 218.908 791.64 218.908 799.52C218.908 807.48 221.788 813.52 225.268 817.64H228.548C225.268 813.28 222.108 807.56 222.108 799.52ZM232.785 812H236.305V787.52H237.185L244.505 801.08H248.265L255.585 787.52H256.465V812H259.985V783.44H253.945L246.865 796.84H245.985L238.785 783.44H232.785V812ZM280.158 812H283.358V798.28C283.358 793.76 280.118 791.32 275.038 791.32C270.518 791.32 267.318 793.48 267.038 797.2H270.438C270.598 795.44 272.118 794.28 275.118 794.28C278.638 794.28 280.038 796.04 280.038 798.48V799.28H273.478C267.878 799.28 265.758 802.72 265.758 805.96C265.758 809.4 268.358 812.52 272.998 812.52C275.878 812.52 278.038 811.44 279.278 809.88H280.158V812ZM273.838 809.56C270.838 809.56 269.158 808.12 269.158 805.84C269.158 803.44 270.678 802 273.998 802H280.038V803.84C280.038 807.04 277.198 809.56 273.838 809.56ZM294.336 786.6V782.92H290.736V786.6H294.336ZM287.776 820C291.936 820 294.256 817.52 294.256 813.08V791.84H290.856V812.96C290.856 815.56 289.856 817.04 287.096 817.04H285.256V820H287.776ZM309.962 791.32C303.642 791.32 300.042 795.96 300.042 801.92C300.042 807.88 303.642 812.52 309.962 812.52C316.242 812.52 319.882 807.88 319.882 801.92C319.882 795.96 316.242 791.32 309.962 791.32ZM309.962 809.56C305.482 809.56 303.442 805.88 303.442 801.92C303.442 797.96 305.482 794.28 309.962 794.28C314.402 794.28 316.482 797.96 316.482 801.92C316.482 805.88 314.402 809.56 309.962 809.56ZM337.108 791.84H335.588C332.668 791.84 330.748 793 329.748 794.24H328.868V791.84H325.588V812H328.988V801.92C328.988 797.48 331.428 795.04 335.428 795.04H337.108V791.84ZM354.097 783.44V812H357.697V783.44H354.097ZM383.184 812V799.2C383.184 794.36 380.464 791.32 375.504 791.32C372.784 791.32 370.544 792.44 369.424 794H368.544V791.84H365.264V812H368.664V801.08C368.664 797.52 371.064 794.36 374.664 794.36C378.064 794.36 379.784 796.2 379.784 799.92V812H383.184ZM404.445 782.92V794H403.565C402.445 792.56 400.605 791.32 397.405 791.32C391.845 791.32 388.565 795.84 388.565 801.92C388.565 807.88 391.845 812.52 397.405 812.52C400.605 812.52 402.565 811.24 403.685 809.84H404.565V812H407.845V782.92H404.445ZM398.165 809.56C394.125 809.56 391.965 806.4 391.965 801.92C391.965 797.44 394.125 794.28 398.165 794.28C402.645 794.28 404.485 797.96 404.485 801.92C404.485 805.88 402.645 809.56 398.165 809.56ZM414.494 791.84V804.64C414.494 809.48 417.214 812.52 422.174 812.52C424.894 812.52 427.134 811.4 428.254 809.84H429.134V812H432.414V791.84H429.014V802.76C429.014 806.4 426.574 809.48 423.014 809.48C419.614 809.48 417.894 807.64 417.894 803.92V791.84H414.494ZM444.955 799.44C442.915 799.12 441.915 798.52 441.915 796.96C441.915 795.24 443.675 794.28 446.275 794.28C448.795 794.28 450.715 795.16 450.995 797.08H454.395C453.955 793.56 451.195 791.32 446.435 791.32C440.995 791.32 438.475 793.92 438.475 797.28C438.475 800.32 440.435 801.84 443.315 802.36L447.835 803.12C450.395 803.56 451.515 804.52 451.515 806.28C451.515 808.48 449.515 809.56 446.475 809.56C443.435 809.56 441.435 808.44 441.115 806.16H437.675C438.115 810 440.915 812.52 446.635 812.52C452.075 812.52 454.915 809.52 454.915 806.2C454.915 802.52 452.675 800.72 449.155 800.12L446.875 799.76L444.955 799.44ZM464.982 791.84V785.76H461.582V791.84H458.102V794.8H461.582V806.36C461.582 810.64 464.142 812 468.502 812H470.062V808.96H468.582C465.862 808.96 464.982 807.92 464.982 805.88V794.8H470.062V791.84H464.982ZM487.573 791.84H486.053C483.133 791.84 481.213 793 480.213 794.24H479.333V791.84H476.053V812H479.453V801.92C479.453 797.48 481.893 795.04 485.893 795.04H487.573V791.84ZM499.315 820L511.395 791.84H507.835L502.235 805.12H501.235L495.075 791.84H491.435L500.035 810.12L495.875 820H499.315ZM527.932 783.44V812H531.532V783.44H527.932ZM553.739 782.92V794H552.859C551.739 792.56 549.899 791.32 546.699 791.32C541.139 791.32 537.859 795.84 537.859 801.92C537.859 807.88 541.139 812.52 546.699 812.52C549.899 812.52 551.859 811.24 552.979 809.84H553.859V812H557.139V782.92H553.739ZM547.459 809.56C543.419 809.56 541.259 806.4 541.259 801.92C541.259 797.44 543.419 794.28 547.459 794.28C551.939 794.28 553.779 797.96 553.779 801.92C553.779 805.88 551.939 809.56 547.459 809.56ZM581.588 800.72C581.468 795.76 578.588 791.32 572.588 791.32C566.468 791.32 562.868 795.52 562.868 801.72C562.868 807.92 566.388 812.52 572.668 812.52C577.668 812.52 580.588 809.88 581.228 806.44H577.788C577.188 808.36 575.508 809.56 572.668 809.56C568.508 809.56 566.348 806.68 566.228 801.88H581.588V800.72ZM572.508 794.28C575.908 794.28 577.868 796.48 578.068 799.04H566.428C566.868 796.48 568.868 794.28 572.508 794.28ZM605.202 812V799.2C605.202 794.36 602.482 791.32 597.522 791.32C594.802 791.32 592.562 792.44 591.442 794H590.562V791.84H587.282V812H590.682V801.08C590.682 797.52 593.082 794.36 596.682 794.36C600.082 794.36 601.802 796.2 601.802 799.92V812H605.202ZM616.502 791.84V785.76H613.102V791.84H609.622V794.8H613.102V806.36C613.102 810.64 615.662 812 620.022 812H621.582V808.96H620.102C617.382 808.96 616.502 807.92 616.502 805.88V794.8H621.582V791.84H616.502ZM631.174 786.6V782.92H627.574V786.6H631.174ZM631.054 791.84H627.654V812H631.054V791.84ZM648.29 794.8V791.84H642.81V789.64C642.81 787.56 643.69 785.88 646.37 785.88H648.29V782.92H646.33C641.97 782.92 639.41 784.92 639.41 789.52V791.84H635.93V794.8H639.41V812H642.81V794.8H648.29ZM655.97 786.6V782.92H652.37V786.6H655.97ZM655.85 791.84H652.45V812H655.85V791.84ZM680.424 800.72C680.304 795.76 677.424 791.32 671.424 791.32C665.304 791.32 661.704 795.52 661.704 801.72C661.704 807.92 665.224 812.52 671.504 812.52C676.504 812.52 679.424 809.88 680.064 806.44H676.624C676.024 808.36 674.344 809.56 671.504 809.56C667.344 809.56 665.184 806.68 665.064 801.88H680.424V800.72ZM671.344 794.28C674.744 794.28 676.704 796.48 676.904 799.04H665.264C665.704 796.48 667.704 794.28 671.344 794.28ZM697.638 791.84H696.118C693.198 791.84 691.278 793 690.278 794.24H689.398V791.84H686.118V812H689.518V801.92C689.518 797.48 691.958 795.04 695.958 795.04H697.638V791.84ZM705.854 799.52C705.854 807.56 702.694 813.28 699.414 817.64H702.694C706.174 813.52 709.054 807.48 709.054 799.52C709.054 791.64 706.254 785.8 702.974 781.64H699.694C702.894 786 705.854 791.6 705.854 799.52Z" fill="white"/>
<line x1="163" y1="623" x2="535" y2="623" stroke="white" stroke-width="4"/>
<line x1="539" y1="593" x2="1128" y2="593" stroke="white" stroke-width="4"/>
<line x1="533" y1="569" x2="533" y2="625" stroke="white" stroke-width="4"/>
<line x1="1134" y1="593" x2="1180" y2="593" stroke="white" stroke-width="4"/>
<line x1="1134" y1="569" x2="1134" y2="595" stroke="white" stroke-width="4"/>
<line x1="1179" y1="569" x2="1179" y2="595" stroke="white" stroke-width="4"/>
<line x1="167" y1="593" x2="213" y2="593" stroke="white" stroke-width="4"/>
<line x1="165" y1="569" x2="165" y2="595" stroke="white" stroke-width="4"/>
<line x1="212" y1="569" x2="212" y2="595" stroke="white" stroke-width="4"/>
<line x1="351" y1="623" x2="351" y2="685" stroke="white" stroke-width="4"/>
<line x1="188" y1="594" x2="188" y2="773" stroke="white" stroke-width="4"/>
<line x1="1009" y1="595" x2="1009" y2="774" stroke="white" stroke-width="4"/>
<line x1="1156" y1="593" x2="1156" y2="639" stroke="white" stroke-width="4"/>
<line x1="165" y1="599" x2="165" y2="625" stroke="white" stroke-width="4"/>
<line x1="1128" y1="569" x2="1128" y2="595" stroke="white" stroke-width="4"/>
<line x1="541" y1="569" x2="541" y2="595" stroke="white" stroke-width="4"/>
</g>
<defs>
<clipPath id="clip0_830:971">
<rect width="1474" height="945" fill="white"/>
</clipPath>
<clipPath id="clip1_830:971">
<rect width="202" height="160.207" fill="white" transform="translate(161 252)"/>
</clipPath>
</defs>
</svg>
